<?xml version="1.0" encoding="iso-8859-1"?>
<!-- Generator: Adobe Illustrator 19.0.0, SVG Export Plug-In . SVG Version: 6.00 Build 0)  -->
<svg version="1.1" id="Layer_1" xmlns="http://www.w3.org/2000/svg" xmlns:xlink="http://www.w3.org/1999/xlink" x="0px" y="0px"
	 viewBox="0 0 512 512" style="enable-background:new 0 0 512 512;" xml:space="preserve">
<g>
	<g>
		<path d="M510.976,366.784l-32.213-99.819c10.155-23.125,15.275-47.723,15.275-73.28c0-100.907-82.091-183.019-183.019-183.019
			c-76.245,0-142.891,46.72-170.112,116.992C69.461,152.597,17.963,220.501,17.963,300.352c0,25.557,5.12,50.155,15.275,73.28
			L1.024,473.451c-2.624,8.171-0.107,17.131,6.421,22.741c3.947,3.392,8.896,5.141,13.888,5.141c3.243,0,6.528-0.747,9.536-2.24
			l71.317-35.669c25.195,12.331,70.741,19.947,98.795,19.947c86.763,0,159.467-60.757,178.197-141.931l101.952,50.987
			c3.008,1.493,6.293,2.24,9.536,2.24c4.992,0,9.941-1.749,13.888-5.141C511.083,383.915,513.6,374.955,510.976,366.784z
			 M106.667,309.333c-11.776,0-21.333-9.557-21.333-21.333s9.557-21.333,21.333-21.333S128,276.224,128,288
			S118.443,309.333,106.667,309.333z M192,309.333c-11.776,0-21.333-9.557-21.333-21.333s9.557-21.333,21.333-21.333
			s21.333,9.557,21.333,21.333S203.776,309.333,192,309.333z M277.333,309.333C265.557,309.333,256,299.776,256,288
			s9.557-21.333,21.333-21.333s21.333,9.557,21.333,21.333S289.109,309.333,277.333,309.333z M383.957,296.128
			c-0.064-2.432-0.384-4.779-0.533-7.168c-0.192-3.2-0.363-6.379-0.704-9.536c-0.341-2.773-0.832-5.504-1.28-8.256
			c-0.555-3.456-1.088-6.891-1.835-10.283c-0.491-2.176-1.109-4.309-1.685-6.464c-1.003-3.925-2.069-7.808-3.328-11.627
			c-0.491-1.451-1.067-2.859-1.579-4.288c-1.6-4.459-3.307-8.832-5.248-13.12c-0.341-0.747-0.704-1.451-1.067-2.197
			c-2.283-4.885-4.736-9.643-7.424-14.272c-0.107-0.171-0.213-0.341-0.32-0.512c-14.976-25.621-35.947-47.253-61.035-62.997
			c-0.277-0.171-0.533-0.32-0.811-0.491c-4.565-2.837-9.259-5.504-14.101-7.936c-0.917-0.469-1.856-0.896-2.795-1.344
			c-4.181-2.027-8.448-3.925-12.8-5.632c-1.685-0.661-3.413-1.259-5.12-1.877c-3.691-1.323-7.381-2.56-11.179-3.648
			c-2.453-0.704-4.928-1.301-7.424-1.899c-3.179-0.768-6.379-1.493-9.643-2.091c-3.029-0.576-6.08-1.003-9.173-1.408
			c-2.923-0.384-5.845-0.747-8.811-0.981c-3.243-0.277-6.507-0.405-9.792-0.491c-1.771-0.064-3.499-0.277-5.291-0.277
			c-1.365,0-2.688,0.171-4.032,0.213c-1.301,0.021-2.581-0.085-3.904-0.043c25.323-39.424,69.227-64.171,117.973-64.171
			c77.397,0,140.352,62.955,140.352,140.352c0,21.909-4.907,42.88-14.571,62.379c-2.496,4.971-2.923,10.731-1.216,16.043
			l19.179,59.435L383.957,296.128z"/>
	</g>
</g>
<g>
</g>
<g>
</g>
<g>
</g>
<g>
</g>
<g>
</g>
<g>
</g>
<g>
</g>
<g>
</g>
<g>
</g>
<g>
</g>
<g>
</g>
<g>
</g>
<g>
</g>
<g>
</g>
<g>
</g>
</svg>
